<?xml version="1.0" encoding="utf-8"?><svg xml:space="preserve" viewBox="0 0 100 100" y="0" x="0" xmlns="http://www.w3.org/2000/svg" id="圖層_1" version="1.1" width="200px" height="200px" xmlns:xlink="http://www.w3.org/1999/xlink" style="width:100%;height:100%;background-size:initial;background-repeat-y:initial;background-repeat-x:initial;background-position-y:initial;background-position-x:initial;background-origin:initial;background-image:initial;background-color:rgb(255, 255, 255);background-clip:initial;background-attachment:initial;animation-play-state:paused" ><g class="ldl-scale" style="transform-origin:50% 50%;transform:rotate(0deg) scale(0.8, 0.8);animation-play-state:paused" ><g style="animation-play-state:paused" ><path fill="#e0e0e0" d="M58.5 18.2H30.8c-4.1 0-7.7 3.2-7.8 7.3-.1 4.2 3.3 7.7 7.5 7.7h3.8c2.5 0 4.7 2 4.7 4.4v.2c0 2.5-2.2 4.4-4.7 4.4H21.8c-4.1 0-7.7 3.2-7.8 7.3v.5c-.1 4.2 3.3 7.7 7.5 7.7h20.8c2.5 0 4.7 2 4.7 4.4v.2c0 2.5-2.2 4.4-4.7 4.4h-3.5c-4.1 0-7.7 3.2-7.8 7.3-.1 4.2 3.3 7.7 7.5 7.7h30.7c4.1 0 7.7-3.2 7.8-7.3.1-4.2-3.3-7.7-7.5-7.7h-7.8c-2.5 0-4.7-2-4.7-4.4v-.1-.1c0-2.5 2.2-4.4 4.7-4.4h16.5c4.1 0 7.7-3.2 7.8-7.3V50v-.1c.1-4.2-3.3-7.7-7.5-7.7H53.7c-2.5 0-4.7-2-4.7-4.4v-.1-.1c0-2.5 2.2-4.4 4.7-4.4h4.5c4.1 0 7.7-3.2 7.8-7.3.1-4.2-3.3-7.7-7.5-7.7z" style="fill:rgb(224, 224, 224);animation-play-state:paused" ></path></g>
<metadata xmlns:d="https://loading.io/stock/" style="animation-play-state:paused" ><d:name style="animation-play-state:paused" >cloud</d:name>
<d:tags style="animation-play-state:paused" >weather,mist,fog,smoke,cloud,weather</d:tags>
<d:license style="animation-play-state:paused" >by</d:license>
<d:slug style="animation-play-state:paused" >r8pcs9</d:slug></metadata></g><!-- generated by https://loading.io/ --></svg>